<svg width="128" height="200" viewBox="0 0 128 200" fill="none" xmlns="http://www.w3.org/2000/svg">
<g clip-path="url(#clip0_3_155)">
<path d="M102.876 90H99V139.943H102.876V90Z" fill="#D5F2F2"/>
<path d="M101 91.0502C97.8355 91.0502 94.7421 90.1397 92.1109 88.4338C89.4797 86.7278 87.4289 84.3032 86.2179 81.4663C85.0069 78.6295 84.6901 75.5079 85.3074 72.4963C85.9248 69.4847 87.4487 66.7184 89.6863 64.5472C91.9239 62.376 94.7749 60.8974 97.8786 60.2983C100.982 59.6993 104.199 60.0067 107.123 61.1818C110.047 62.3568 112.545 64.3467 114.304 66.8998C116.062 69.4529 117 72.4545 117 75.5251C116.995 79.6413 115.308 83.5876 112.309 86.4982C109.309 89.4087 105.242 91.0458 101 91.0502V91.0502ZM101 63.738C98.5974 63.738 96.2488 64.4293 94.2511 65.7245C92.2534 67.0197 90.6964 68.8606 89.777 71.0144C88.8576 73.1682 88.617 75.5382 89.0857 77.8247C89.5545 80.1111 90.7114 82.2114 92.4103 83.8599C94.1092 85.5083 96.2737 86.6309 98.6301 87.0857C100.987 87.5406 103.429 87.3071 105.649 86.415C107.868 85.5229 109.766 84.0121 111.1 82.0737C112.435 80.1353 113.148 77.8564 113.148 75.5251C113.144 72.4 111.863 69.4038 109.586 67.194C107.309 64.9842 104.221 63.7413 101 63.738V63.738Z" fill="#D5F2F2"/>
<path d="M128.467 26.3297V12.6086H26.3618V0H10.0249V12.6086H0V26.3297H10.0249V200.254H26.3618V80.8434L80.9418 26.3297H101.474V40.9001L95.192 43.496C94.8338 43.6435 94.538 43.9109 94.3554 44.2523C94.1728 44.5937 94.1147 44.9879 94.191 45.3674C94.2673 45.7469 94.4734 46.0881 94.7739 46.3325C95.0743 46.577 95.4505 46.7095 95.8381 46.7074C96.0574 46.7059 96.2743 46.6618 96.4767 46.5776L101.456 44.5009V46.522L95.1735 49.1179C94.8152 49.2655 94.5194 49.5329 94.3368 49.8743C94.1542 50.2157 94.0961 50.6099 94.1724 50.9894C94.2488 51.3688 94.4548 51.71 94.7553 51.9545C95.0558 52.1989 95.432 52.3315 95.8195 52.3294C96.039 52.3297 96.2562 52.2856 96.4581 52.1996L101.456 50.1229V52.1403L95.1735 54.7362C94.8175 54.8852 94.5243 55.1527 94.3434 55.4932C94.1626 55.8338 94.1054 56.2263 94.1815 56.6042C94.2576 56.9821 94.4624 57.3221 94.7609 57.5663C95.0595 57.8105 95.4336 57.9439 95.8195 57.9439C96.039 57.9442 96.2562 57.9001 96.4581 57.8141L101.456 55.7374V60.6251H104.797V54.395L111.08 51.7806C111.489 51.6104 111.814 51.2849 111.982 50.8756C112.151 50.4663 112.15 50.0068 111.98 49.5981C111.81 49.1895 111.484 48.8652 111.074 48.6965C110.664 48.5279 110.204 48.5287 109.795 48.6989L104.797 50.7793V48.7619L111.08 46.1475C111.489 45.9773 111.814 45.6518 111.982 45.2425C112.151 44.8332 112.15 44.3737 111.98 43.9651C111.81 43.5564 111.484 43.2321 111.074 43.0634C110.664 42.8948 110.204 42.8956 109.795 43.0658L104.797 45.1462V43.1251L111.08 40.5292C111.282 40.445 111.466 40.3217 111.621 40.1664C111.776 40.0112 111.899 39.8269 111.982 39.6243C112.066 39.4216 112.109 39.2045 112.108 38.9853C112.108 38.7661 112.064 38.5492 111.98 38.3468C111.896 38.1445 111.772 37.9607 111.617 37.806C111.461 37.6513 111.277 37.5287 111.074 37.4452C110.871 37.3617 110.654 37.3189 110.434 37.3193C110.215 37.3197 109.998 37.3633 109.795 37.4475L104.797 39.5242V26.3297H128.467ZM79.542 22.9922L23.0201 79.4453V196.917H13.3665V22.9922H3.34163V15.9462H13.3665V3.33757H23.0201V15.9462H125.126V22.9922H79.542Z" fill="url(#paint0_linear_3_155)"/>
<path d="M23.0201 69.4771L69.5617 22.9921H23.0201V69.4771ZM26.3618 26.3297H61.4972L26.3618 61.4224V26.3297Z" fill="url(#paint1_linear_3_155)"/>
</g>
<defs>
<linearGradient id="paint0_linear_3_155" x1="64.2336" y1="0" x2="64.2336" y2="200.254" gradientUnits="userSpaceOnUse">
<stop stop-color="#F22797"/>
<stop offset="1" stop-color="#2E62A6"/>
</linearGradient>
<linearGradient id="paint1_linear_3_155" x1="46.2909" y1="22.9921" x2="46.2909" y2="69.4771" gradientUnits="userSpaceOnUse">
<stop stop-color="#F22797"/>
<stop offset="1" stop-color="#2E62A6"/>
</linearGradient>
<clipPath id="clip0_3_155">
<rect width="128" height="200" fill="white"/>
</clipPath>
</defs>
</svg>
